# xmcd
#
# Track frame offsets:
#	150
#	18788
#	37801
#	66417
#	98828
#	120293
#	142642
#	189299
#	213394
#
# Disc length: 2995 seconds
#
# Revision: 0
# Processed by: cddbd v1.4PL0 Copyright (c) Steve Scherf et al.
# Submitted via: dBpowerAMP V4.0
#
DISCID=670bb109
DTITLE=Ilse Delange - Dear John
DYEAR=1999
DGENRE=Country
TTITLE0=It'll Come To You
TTITLE1=Child Of The Wild Blue Yonder
TTITLE2=Angel Eyes
TTITLE3=Inside Job
TTITLE4=Riding With The King
TTITLE5=Sure Pinocchio
TTITLE6=Feels Like Rain
TTITLE7=Back Of My Mind
TTITLE8=Have A Little Faith In Me
EXTD=
EXTT0=
EXTT1=
EXTT2=
EXTT3=
EXTT4=
EXTT5=
EXTT6=
EXTT7=
EXTT8=
PLAYORDER=
